<svg width="561" height="500" viewBox="0 0 561 500" fill="none" xmlns="http://www.w3.org/2000/svg">
<g clip-path="url(#clip0)">
<path d="M218.725 330.512V296.375C218.725 286.154 214.557 280.993 206.419 280.993C203.641 280.993 200.862 281.787 197.885 283.375C194.908 284.963 191.236 287.444 187.068 290.818C185.679 284.268 181.809 280.993 175.259 280.993C172.58 280.993 169.801 281.787 166.923 283.276C163.946 284.764 160.473 287.146 156.404 290.421V280.497L130.901 289.428L136.557 294.291V330.512H131.595V332.1H160.374V330.512H156.404V291.612C158.191 290.818 160.076 290.322 162.259 290.322C164.244 290.322 165.733 291.116 166.527 292.604C167.32 294.192 167.717 296.871 167.717 300.642V330.512H163.748V332.1H191.534V330.512H187.565V296.375C187.565 294.787 187.465 293.199 187.267 291.81C189.252 290.818 191.236 290.322 193.419 290.322C195.404 290.322 196.893 291.116 197.687 292.604C198.481 294.192 198.877 296.871 198.877 300.642V330.512H194.908V332.1H223.686V330.512H218.725ZM269.419 281.49C266.64 281.49 263.663 282.284 260.686 283.871C257.61 285.459 254.732 287.642 252.152 290.322V280.497L226.648 289.428L232.304 294.291V355.321H227.343V356.909H260.091V355.321H252.152V329.52C253.739 330.611 255.625 331.505 257.808 332.1C259.892 332.795 261.976 333.092 264.06 333.092C267.335 333.092 270.411 332.497 273.19 331.207C275.968 329.917 278.449 328.031 280.533 325.55C282.617 323.169 284.205 320.192 285.396 316.619C286.487 313.146 287.083 309.276 287.083 305.009C287.083 297.665 285.396 291.909 282.121 287.741C278.747 283.574 274.579 281.49 269.419 281.49ZM257.014 329.321C255.129 329.321 253.541 328.825 252.152 327.833V291.711C253.64 291.116 255.03 290.719 256.32 290.719C259.495 290.719 261.877 292.406 263.465 295.68C265.052 299.054 265.846 304.016 265.846 310.665C265.846 316.52 264.953 321.085 263.365 324.36C261.778 327.734 259.594 329.321 257.014 329.321ZM291.982 332.1H321.753V330.512H316.791V257.673L291.287 266.604L296.944 271.467V330.512H291.982V332.1ZM380.095 330.512V280.596L354.591 289.528L360.248 294.39V322.871C358.362 323.566 356.675 323.863 355.187 323.863C352.805 323.863 351.316 323.069 350.622 321.382C349.828 319.695 349.53 316.619 349.53 312.253V281.093L324.026 290.024L329.683 294.886V316.222C329.683 322.176 330.675 326.444 332.759 329.123C334.744 331.902 338.019 333.192 342.484 333.192C344.37 333.192 346.553 332.695 349.034 331.604C351.416 330.512 355.187 328.131 360.248 324.459V332.1H385.057V330.512H380.095ZM407.454 333.092C410.431 333.092 413.309 332.795 416.087 332.001C418.866 331.207 421.248 330.115 423.331 328.627C425.415 327.138 427.102 325.352 428.293 323.268C429.484 321.184 430.08 318.902 430.08 316.421C430.08 313.444 429.186 310.665 427.4 308.085C425.614 305.604 423.034 303.421 419.66 301.635L412.217 297.665C409.438 296.276 407.454 294.787 406.362 293.398C405.271 292.009 404.774 290.421 404.774 288.635C404.774 287.245 405.271 285.955 406.461 284.963C407.652 283.971 409.24 283.375 411.324 283.375C411.919 283.375 412.515 283.474 413.011 283.673L424.522 300.047H424.622L428.492 284.367C423.232 282.482 417.774 281.49 412.019 281.49C405.469 281.49 400.209 283.077 396.439 286.054C392.568 289.032 390.683 293.1 390.683 298.062C390.683 301.734 391.675 304.909 393.66 307.489C395.645 310.07 398.721 312.451 402.889 314.634L409.438 318.108C412.019 319.497 413.706 320.787 414.4 321.779C414.996 322.871 415.393 323.963 415.393 324.955C415.393 326.94 414.698 328.527 413.309 329.619C411.919 330.81 410.232 331.306 408.049 331.306C407.057 331.306 405.965 331.207 404.774 330.81L392.469 314.337H392.37L389.294 330.512C395.049 332.298 401.103 333.092 407.454 333.092Z" fill="black"/>
<path d="M217.725 70.5122V36.375C217.725 26.1537 213.557 20.9934 205.419 20.9934C202.641 20.9934 199.862 21.7873 196.885 23.3751C193.908 24.9629 190.236 27.4438 186.068 30.8178C184.679 24.2682 180.809 20.9934 174.259 20.9934C171.58 20.9934 168.801 21.7873 165.923 23.2759C162.946 24.7644 159.473 27.1461 155.404 30.4209V20.4973L129.901 29.4285L135.557 34.2911V70.5122H130.595V72.1H159.374V70.5122H155.404V31.6117C157.191 30.8178 159.076 30.3216 161.259 30.3216C163.244 30.3216 164.733 31.1155 165.527 32.604C166.32 34.1918 166.717 36.8712 166.717 40.6422V70.5122H162.748V72.1H190.534V70.5122H186.565V36.375C186.565 34.7872 186.465 33.1995 186.267 31.8102C188.252 30.8178 190.236 30.3216 192.419 30.3216C194.404 30.3216 195.893 31.1155 196.687 32.604C197.481 34.1918 197.877 36.8712 197.877 40.6422V70.5122H193.908V72.1H222.686V70.5122H217.725ZM268.419 21.4896C265.64 21.4896 262.663 22.2835 259.686 23.8713C256.61 25.4591 253.732 27.6422 251.152 30.3216V20.4973L225.648 29.4285L231.304 34.2911V95.3212H226.343V96.909H259.091V95.3212H251.152V69.5198C252.739 70.6114 254.625 71.5046 256.808 72.1C258.892 72.7946 260.976 73.0923 263.06 73.0923C266.335 73.0923 269.411 72.4969 272.19 71.2069C274.968 69.9168 277.449 68.0313 279.533 65.5504C281.617 63.1687 283.205 60.1917 284.396 56.6192C285.487 53.1459 286.083 49.2757 286.083 45.0085C286.083 37.6651 284.396 31.9094 281.121 27.7415C277.747 23.5736 273.579 21.4896 268.419 21.4896ZM256.014 69.3214C254.129 69.3214 252.541 68.8252 251.152 67.8328V31.7109C252.64 31.1155 254.03 30.7186 255.32 30.7186C258.495 30.7186 260.877 32.4056 262.465 35.6804C264.052 39.0544 264.846 44.0162 264.846 50.665C264.846 56.5199 263.953 61.0848 262.365 64.3596C260.778 67.7336 258.594 69.3214 256.014 69.3214ZM290.982 72.1H320.753V70.5122H315.791V-2.32703L290.287 6.60421L295.944 11.4668V70.5122H290.982V72.1ZM379.095 70.5122V20.5965L353.591 29.5277L359.248 34.3903V62.871C357.362 63.5657 355.675 63.8634 354.187 63.8634C351.805 63.8634 350.316 63.0695 349.622 61.3825C348.828 59.6955 348.53 56.6192 348.53 52.2528V21.0927L323.026 30.0239L328.683 34.8865V56.2222C328.683 62.1764 329.675 66.4435 331.759 69.1229C333.744 71.9015 337.019 73.1916 341.484 73.1916C343.37 73.1916 345.553 72.6954 348.034 71.6038C350.416 70.5122 354.187 68.1305 359.248 64.4588V72.1H384.057V70.5122H379.095ZM406.454 73.0923C409.431 73.0923 412.309 72.7946 415.087 72.0007C417.866 71.2069 420.248 70.1153 422.331 68.6267C424.415 67.1382 426.102 65.3519 427.293 63.268C428.484 61.184 429.08 58.9016 429.08 56.4207C429.08 53.4436 428.186 50.665 426.4 48.0849C424.614 45.604 422.034 43.4208 418.66 41.6345L411.217 37.6651C408.438 36.2758 406.454 34.7872 405.362 33.3979C404.271 32.0086 403.774 30.4209 403.774 28.6346C403.774 27.2453 404.271 25.9552 405.461 24.9629C406.652 23.9705 408.24 23.3751 410.324 23.3751C410.919 23.3751 411.515 23.4743 412.011 23.6728L423.522 40.0467H423.622L427.492 24.3675C422.232 22.482 416.774 21.4896 411.019 21.4896C404.469 21.4896 399.209 23.0774 395.439 26.0545C391.568 29.0316 389.683 33.1002 389.683 38.062C389.683 41.7338 390.675 44.9093 392.66 47.4894C394.645 50.0696 397.721 52.4512 401.889 54.6344L408.438 58.1077C411.019 59.497 412.706 60.7871 413.4 61.7794C413.996 62.871 414.393 63.9626 414.393 64.955C414.393 66.9397 413.698 68.5275 412.309 69.6191C410.919 70.8099 409.232 71.3061 407.049 71.3061C406.057 71.3061 404.965 71.2069 403.774 70.8099L391.469 54.3367H391.37L388.294 70.5122C394.049 72.2984 400.103 73.0923 406.454 73.0923Z" fill="black"/>
<path d="M219.725 459.846V425.708C219.725 415.487 215.557 410.327 207.419 410.327C204.641 410.327 201.862 411.121 198.885 412.708C195.908 414.296 192.236 416.777 188.068 420.151C186.679 413.602 182.809 410.327 176.259 410.327C173.58 410.327 170.801 411.121 167.923 412.609C164.946 414.098 161.473 416.479 157.404 419.754V409.831L131.901 418.762L137.557 423.624V459.846H132.595V461.433H161.374V459.846H157.404V420.945C159.191 420.151 161.076 419.655 163.259 419.655C165.244 419.655 166.733 420.449 167.527 421.937C168.32 423.525 168.717 426.205 168.717 429.976V459.846H164.748V461.433H192.534V459.846H188.565V425.708C188.565 424.121 188.465 422.533 188.267 421.144C190.252 420.151 192.236 419.655 194.419 419.655C196.404 419.655 197.893 420.449 198.687 421.937C199.481 423.525 199.877 426.205 199.877 429.976V459.846H195.908V461.433H224.686V459.846H219.725ZM270.419 410.823C267.64 410.823 264.663 411.617 261.686 413.205C258.61 414.792 255.732 416.976 253.152 419.655V409.831L227.648 418.762L233.304 423.624V484.655H228.343V486.242H261.091V484.655H253.152V458.853C254.739 459.945 256.625 460.838 258.808 461.433C260.892 462.128 262.976 462.426 265.06 462.426C268.335 462.426 271.411 461.83 274.19 460.54C276.968 459.25 279.449 457.365 281.533 454.884C283.617 452.502 285.205 449.525 286.396 445.953C287.487 442.479 288.083 438.609 288.083 434.342C288.083 426.998 286.396 421.243 283.121 417.075C279.747 412.907 275.579 410.823 270.419 410.823ZM258.014 458.655C256.129 458.655 254.541 458.159 253.152 457.166V421.044C254.64 420.449 256.03 420.052 257.32 420.052C260.495 420.052 262.877 421.739 264.465 425.014C266.052 428.388 266.846 433.35 266.846 439.998C266.846 445.853 265.953 450.418 264.365 453.693C262.778 457.067 260.594 458.655 258.014 458.655ZM292.982 461.433H322.753V459.846H317.791V387.006L292.287 395.938L297.944 400.8V459.846H292.982V461.433ZM381.095 459.846V409.93L355.591 418.861L361.248 423.724V452.204C359.362 452.899 357.675 453.197 356.187 453.197C353.805 453.197 352.316 452.403 351.622 450.716C350.828 449.029 350.53 445.953 350.53 441.586V410.426L325.026 419.357L330.683 424.22V445.556C330.683 451.51 331.675 455.777 333.759 458.456C335.744 461.235 339.019 462.525 343.484 462.525C345.37 462.525 347.553 462.029 350.034 460.937C352.416 459.846 356.187 457.464 361.248 453.792V461.433H386.057V459.846H381.095ZM408.454 462.426C411.431 462.426 414.309 462.128 417.087 461.334C419.866 460.54 422.248 459.449 424.331 457.96C426.415 456.472 428.102 454.685 429.293 452.601C430.484 450.517 431.08 448.235 431.08 445.754C431.08 442.777 430.186 439.998 428.4 437.418C426.614 434.937 424.034 432.754 420.66 430.968L413.217 426.998C410.438 425.609 408.454 424.121 407.362 422.731C406.271 421.342 405.774 419.754 405.774 417.968C405.774 416.579 406.271 415.289 407.461 414.296C408.652 413.304 410.24 412.708 412.324 412.708C412.919 412.708 413.515 412.808 414.011 413.006L425.522 429.38H425.622L429.492 413.701C424.232 411.815 418.774 410.823 413.019 410.823C406.469 410.823 401.209 412.411 397.439 415.388C393.568 418.365 391.683 422.434 391.683 427.395C391.683 431.067 392.675 434.243 394.66 436.823C396.645 439.403 399.721 441.785 403.889 443.968L410.438 447.441C413.019 448.83 414.706 450.12 415.4 451.113C415.996 452.204 416.393 453.296 416.393 454.288C416.393 456.273 415.698 457.861 414.309 458.952C412.919 460.143 411.232 460.639 409.049 460.639C408.057 460.639 406.965 460.54 405.774 460.143L393.469 443.67H393.37L390.294 459.846C396.049 461.632 402.103 462.426 408.454 462.426Z" fill="black"/>
<path d="M217.725 199.846V165.708C217.725 155.487 213.557 150.327 205.419 150.327C202.641 150.327 199.862 151.121 196.885 152.708C193.908 154.296 190.236 156.777 186.068 160.151C184.679 153.602 180.809 150.327 174.259 150.327C171.58 150.327 168.801 151.121 165.923 152.609C162.946 154.098 159.473 156.479 155.404 159.754V149.831L129.901 158.762L135.557 163.624V199.846H130.595V201.433H159.374V199.846H155.404V160.945C157.191 160.151 159.076 159.655 161.259 159.655C163.244 159.655 164.733 160.449 165.527 161.937C166.32 163.525 166.717 166.205 166.717 169.976V199.846H162.748V201.433H190.534V199.846H186.565V165.708C186.565 164.121 186.465 162.533 186.267 161.144C188.252 160.151 190.236 159.655 192.419 159.655C194.404 159.655 195.893 160.449 196.687 161.937C197.481 163.525 197.877 166.205 197.877 169.976V199.846H193.908V201.433H222.686V199.846H217.725ZM268.419 150.823C265.64 150.823 262.663 151.617 259.686 153.205C256.61 154.792 253.732 156.976 251.152 159.655V149.831L225.648 158.762L231.304 163.624V224.655H226.343V226.242H259.091V224.655H251.152V198.853C252.739 199.945 254.625 200.838 256.808 201.433C258.892 202.128 260.976 202.426 263.06 202.426C266.335 202.426 269.411 201.83 272.19 200.54C274.968 199.25 277.449 197.365 279.533 194.884C281.617 192.502 283.205 189.525 284.396 185.953C285.487 182.479 286.083 178.609 286.083 174.342C286.083 166.998 284.396 161.243 281.121 157.075C277.747 152.907 273.579 150.823 268.419 150.823ZM256.014 198.655C254.129 198.655 252.541 198.159 251.152 197.166V161.044C252.64 160.449 254.03 160.052 255.32 160.052C258.495 160.052 260.877 161.739 262.465 165.014C264.052 168.388 264.846 173.35 264.846 179.998C264.846 185.853 263.953 190.418 262.365 193.693C260.778 197.067 258.594 198.655 256.014 198.655ZM290.982 201.433H320.753V199.846H315.791V127.006L290.287 135.938L295.944 140.8V199.846H290.982V201.433ZM379.095 199.846V149.93L353.591 158.861L359.248 163.724V192.204C357.362 192.899 355.675 193.197 354.187 193.197C351.805 193.197 350.316 192.403 349.622 190.716C348.828 189.029 348.53 185.953 348.53 181.586V150.426L323.026 159.357L328.683 164.22V185.556C328.683 191.51 329.675 195.777 331.759 198.456C333.744 201.235 337.019 202.525 341.484 202.525C343.37 202.525 345.553 202.029 348.034 200.937C350.416 199.846 354.187 197.464 359.248 193.792V201.433H384.057V199.846H379.095ZM406.454 202.426C409.431 202.426 412.309 202.128 415.087 201.334C417.866 200.54 420.248 199.449 422.331 197.96C424.415 196.472 426.102 194.685 427.293 192.601C428.484 190.517 429.08 188.235 429.08 185.754C429.08 182.777 428.186 179.998 426.4 177.418C424.614 174.937 422.034 172.754 418.66 170.968L411.217 166.998C408.438 165.609 406.454 164.121 405.362 162.731C404.271 161.342 403.774 159.754 403.774 157.968C403.774 156.579 404.271 155.289 405.461 154.296C406.652 153.304 408.24 152.708 410.324 152.708C410.919 152.708 411.515 152.808 412.011 153.006L423.522 169.38H423.622L427.492 153.701C422.232 151.815 416.774 150.823 411.019 150.823C404.469 150.823 399.209 152.411 395.439 155.388C391.568 158.365 389.683 162.434 389.683 167.395C389.683 171.067 390.675 174.243 392.66 176.823C394.645 179.403 397.721 181.785 401.889 183.968L408.438 187.441C411.019 188.83 412.706 190.12 413.4 191.113C413.996 192.204 414.393 193.296 414.393 194.288C414.393 196.273 413.698 197.861 412.309 198.952C410.919 200.143 409.232 200.639 407.049 200.639C406.057 200.639 404.965 200.54 403.774 200.143L391.469 183.67H391.37L388.294 199.846C394.049 201.632 400.103 202.426 406.454 202.426Z" fill="black"/>
</g>
<defs>
<clipPath id="clip0">
<rect width="561" height="500" fill="white"/>
</clipPath>
</defs>
</svg>
